<svg xmlns="http://www.w3.org/2000/svg" viewBox="0 0 1600 900" role="img" aria-labelledby="title desc">
  <title id="title">Understanding the component parts of neural networks</title>
  <desc id="desc">A hero illustration showing a stylized neural network over a gradient background with the article title.</desc>
  <defs>
    <linearGradient id="bg" x1="0%" y1="0%" x2="100%" y2="100%">
      <stop offset="0%" stop-color="#0f172a"/>
      <stop offset="50%" stop-color="#1e293b"/>
      <stop offset="100%" stop-color="#172554"/>
    </linearGradient>
    <linearGradient id="accent" x1="0%" y1="0%" x2="100%" y2="0%">
      <stop offset="0%" stop-color="#38bdf8"/>
      <stop offset="50%" stop-color="#22c55e"/>
      <stop offset="100%" stop-color="#f59e0b"/>
    </linearGradient>
  </defs>
  <rect width="1600" height="900" fill="url(#bg)"/>
  <circle cx="250" cy="160" r="180" fill="#38bdf8" opacity="0.08"/>
  <circle cx="1360" cy="720" r="220" fill="#22c55e" opacity="0.08"/>
  <circle cx="1120" cy="180" r="140" fill="#f59e0b" opacity="0.08"/>

  <g stroke="#94a3b8" stroke-width="4" opacity="0.55">
    <line x1="1020" y1="250" x2="1180" y2="210"/>
    <line x1="1020" y1="250" x2="1180" y2="330"/>
    <line x1="1020" y1="450" x2="1180" y2="210"/>
    <line x1="1020" y1="450" x2="1180" y2="330"/>
    <line x1="1020" y1="450" x2="1180" y2="450"/>
    <line x1="1020" y1="650" x2="1180" y2="330"/>
    <line x1="1020" y1="650" x2="1180" y2="450"/>
    <line x1="1020" y1="650" x2="1180" y2="570"/>

    <line x1="820" y1="210" x2="930" y2="250"/>
    <line x1="820" y1="330" x2="930" y2="250"/>
    <line x1="820" y1="330" x2="930" y2="450"/>
    <line x1="820" y1="450" x2="930" y2="250"/>
    <line x1="820" y1="450" x2="930" y2="450"/>
    <line x1="820" y1="450" x2="930" y2="650"/>
    <line x1="820" y1="570" x2="930" y2="450"/>
    <line x1="820" y1="570" x2="930" y2="650"/>
    <line x1="820" y1="690" x2="930" y2="650"/>
  </g>

  <g>
    <circle cx="790" cy="210" r="26" fill="#38bdf8"/>
    <circle cx="790" cy="330" r="26" fill="#38bdf8"/>
    <circle cx="790" cy="450" r="26" fill="#38bdf8"/>
    <circle cx="790" cy="570" r="26" fill="#38bdf8"/>
    <circle cx="790" cy="690" r="26" fill="#38bdf8"/>

    <circle cx="970" cy="250" r="28" fill="#22c55e"/>
    <circle cx="970" cy="450" r="28" fill="#22c55e"/>
    <circle cx="970" cy="650" r="28" fill="#22c55e"/>

    <circle cx="1210" cy="210" r="28" fill="#f59e0b"/>
    <circle cx="1210" cy="330" r="28" fill="#f59e0b"/>
    <circle cx="1210" cy="450" r="28" fill="#f59e0b"/>
    <circle cx="1210" cy="570" r="28" fill="#f59e0b"/>
  </g>

  <rect x="110" y="150" width="560" height="520" rx="28" fill="#0b1120" opacity="0.72" stroke="#334155" stroke-width="2"/>
  <text x="160" y="245" font-family="Arial, Helvetica, sans-serif" font-size="26" font-weight="700" fill="#93c5fd">Data Science • Machine Learning</text>
  <text x="160" y="330" font-family="Arial, Helvetica, sans-serif" font-size="68" font-weight="700" fill="#ffffff">Understanding</text>
  <text x="160" y="408" font-family="Arial, Helvetica, sans-serif" font-size="68" font-weight="700" fill="#ffffff">the Component</text>
  <text x="160" y="486" font-family="Arial, Helvetica, sans-serif" font-size="68" font-weight="700" fill="#ffffff">Parts of Neural</text>
  <text x="160" y="564" font-family="Arial, Helvetica, sans-serif" font-size="68" font-weight="700" fill="#ffffff">Networks</text>

  <rect x="160" y="606" width="320" height="10" rx="5" fill="url(#accent)"/>
  <text x="160" y="660" font-family="Arial, Helvetica, sans-serif" font-size="28" fill="#cbd5e1">A practical mental model for layers, weights,</text>
  <text x="160" y="698" font-family="Arial, Helvetica, sans-serif" font-size="28" fill="#cbd5e1">biases, activations, and backpropagation.</text>
</svg>
