<svg xmlns="http://www.w3.org/2000/svg" viewBox="0 0 1200 630" role="img" aria-labelledby="title desc">
  <title id="title">Justin Stone site social preview</title>
  <desc id="desc">A social preview card for Justin Stone's site featuring the site title, tagline, and a stylized network graphic.</desc>
  <defs>
    <linearGradient id="bg" x1="0%" y1="0%" x2="100%" y2="100%">
      <stop offset="0%" stop-color="#020617"/>
      <stop offset="100%" stop-color="#1e293b"/>
    </linearGradient>
    <linearGradient id="line" x1="0%" y1="0%" x2="100%" y2="0%">
      <stop offset="0%" stop-color="#38bdf8"/>
      <stop offset="100%" stop-color="#22c55e"/>
    </linearGradient>
  </defs>
  <rect width="1200" height="630" fill="url(#bg)"/>
  <circle cx="1020" cy="130" r="110" fill="#38bdf8" opacity="0.1"/>
  <circle cx="140" cy="530" r="160" fill="#22c55e" opacity="0.08"/>

  <g font-family="Arial, Helvetica, sans-serif">
    <text x="90" y="170" font-size="72" font-weight="700" fill="#ffffff">Justin Stone</text>
    <text x="90" y="230" font-size="34" fill="#cbd5e1">Software, automation, and applied AI</text>
    <rect x="90" y="270" width="290" height="10" rx="5" fill="url(#line)"/>
    <text x="90" y="345" font-size="28" fill="#e2e8f0">Practical systems across local AI tooling,</text>
    <text x="90" y="385" font-size="28" fill="#e2e8f0">developer workflows, data projects, and</text>
    <text x="90" y="425" font-size="28" fill="#e2e8f0">clear technical thinking.</text>
    <text x="90" y="520" font-size="24" fill="#93c5fd">ndjstn.github.io</text>
  </g>

  <g stroke="#94a3b8" stroke-width="4" opacity="0.7">
    <line x1="760" y1="180" x2="900" y2="130"/>
    <line x1="760" y1="180" x2="900" y2="250"/>
    <line x1="760" y1="320" x2="900" y2="130"/>
    <line x1="760" y1="320" x2="900" y2="250"/>
    <line x1="760" y1="320" x2="900" y2="370"/>
    <line x1="760" y1="460" x2="900" y2="250"/>
    <line x1="760" y1="460" x2="900" y2="370"/>
    <line x1="760" y1="460" x2="900" y2="490"/>
    <line x1="900" y1="130" x2="1060" y2="220"/>
    <line x1="900" y1="250" x2="1060" y2="220"/>
    <line x1="900" y1="250" x2="1060" y2="400"/>
    <line x1="900" y1="370" x2="1060" y2="220"/>
    <line x1="900" y1="370" x2="1060" y2="400"/>
    <line x1="900" y1="490" x2="1060" y2="400"/>
  </g>

  <g>
    <circle cx="730" cy="180" r="22" fill="#38bdf8"/>
    <circle cx="730" cy="320" r="22" fill="#38bdf8"/>
    <circle cx="730" cy="460" r="22" fill="#38bdf8"/>
    <circle cx="930" cy="130" r="24" fill="#22c55e"/>
    <circle cx="930" cy="250" r="24" fill="#22c55e"/>
    <circle cx="930" cy="370" r="24" fill="#22c55e"/>
    <circle cx="930" cy="490" r="24" fill="#22c55e"/>
    <circle cx="1085" cy="220" r="26" fill="#f59e0b"/>
    <circle cx="1085" cy="400" r="26" fill="#f59e0b"/>
  </g>
</svg>
